<svg xmlns="http://www.w3.org/2000/svg" xmlns:xlink="http://www.w3.org/1999/xlink" width="200" zoomAndPan="magnify" viewBox="0 0 150 149.999998" height="200" preserveAspectRatio="xMidYMid meet" version="1.0"><defs><g/><clipPath id="id1"><path d="M 0.789062 60.339844 L 22.628906 60.339844 L 22.628906 86.339844 L 0.789062 86.339844 Z M 0.789062 60.339844 " clip-rule="nonzero"/></clipPath></defs><g fill="#dfafb2" fill-opacity="1"><g transform="translate(3.53662, 81.877067)"><g><path d="M 0.558594 0 L 5.585938 0 L 5.585938 -0.1875 C 3.980469 -0.1875 3.867188 -1.511719 3.867188 -5.195312 L 3.867188 -18.195312 C 5.007812 -18.609375 5.902344 -18.792969 7.285156 -18.792969 C 10.761719 -18.792969 12.945312 -16.890625 12.945312 -13.789062 C 12.945312 -11.546875 11.433594 -9.246094 9.097656 -9.246094 C 7.359375 -9.246094 6.5 -10.3125 5.398438 -10.3125 C 5.0625 -10.3125 4.746094 -10.125 4.746094 -9.675781 C 4.746094 -8.40625 6.726562 -8.332031 8.539062 -5.605469 C 11.488281 -1.175781 12.011719 0 12.871094 0 L 15.730469 0 L 15.730469 -0.1875 C 13.601562 -0.1875 11.863281 -3.511719 10.386719 -5.808594 C 8.875 -8.164062 4.933594 -8.425781 4.933594 -9.640625 C 4.933594 -10.070312 5.25 -10.125 5.472656 -10.125 C 6.257812 -10.125 7.453125 -8.929688 9.210938 -8.929688 C 12.460938 -8.929688 14.554688 -11.246094 14.554688 -13.804688 C 14.554688 -16.851562 12.332031 -19.054688 8.351562 -19.054688 C 6.183594 -19.054688 4.855469 -18.683594 2.800781 -18.683594 L 0.558594 -18.683594 L 0.558594 -18.496094 C 2.167969 -18.496094 2.277344 -17.167969 2.277344 -13.488281 L 2.277344 -5.195312 C 2.277344 -1.511719 2.167969 -0.1875 0.558594 -0.1875 Z M 0.558594 0 "/></g></g></g><g clip-path="url(#id1)"><path fill="#dfafb2" d="M 22.625 66.992188 C 22.621094 66.976562 22.621094 66.960938 22.617188 66.945312 C 22.617188 66.941406 22.617188 66.9375 22.613281 66.929688 C 22.609375 66.910156 22.601562 66.890625 22.589844 66.875 C 22.589844 66.871094 22.589844 66.871094 22.589844 66.871094 C 22.582031 66.855469 22.566406 66.839844 22.554688 66.824219 C 22.550781 66.820312 22.546875 66.816406 22.542969 66.8125 C 22.53125 66.800781 22.519531 66.792969 22.503906 66.78125 C 22.503906 66.78125 22.5 66.777344 22.496094 66.777344 L 19.148438 64.785156 C 19.144531 64.777344 19.144531 64.769531 19.140625 64.765625 C 19.089844 64.675781 18.992188 64.628906 18.898438 64.636719 L 11.832031 60.433594 C 11.753906 60.386719 11.65625 60.386719 11.578125 60.433594 L 0.914062 66.777344 C 0.914062 66.777344 0.910156 66.78125 0.90625 66.78125 C 0.894531 66.792969 0.882812 66.800781 0.871094 66.8125 C 0.867188 66.816406 0.863281 66.820312 0.859375 66.824219 C 0.84375 66.839844 0.832031 66.855469 0.824219 66.871094 C 0.824219 66.871094 0.820312 66.871094 0.820312 66.875 C 0.8125 66.890625 0.804688 66.910156 0.800781 66.929688 C 0.796875 66.9375 0.796875 66.941406 0.796875 66.945312 C 0.792969 66.960938 0.789062 66.976562 0.789062 66.992188 C 0.789062 66.996094 0.789062 67 0.789062 67.003906 L 0.789062 79.691406 C 0.789062 79.785156 0.835938 79.871094 0.914062 79.917969 L 11.578125 86.261719 C 11.582031 86.261719 11.585938 86.261719 11.589844 86.265625 C 11.601562 86.269531 11.617188 86.277344 11.632812 86.28125 C 11.636719 86.285156 11.640625 86.285156 11.648438 86.289062 C 11.664062 86.292969 11.6875 86.296875 11.707031 86.296875 C 11.726562 86.296875 11.746094 86.292969 11.765625 86.289062 C 11.773438 86.285156 11.777344 86.285156 11.78125 86.28125 C 11.796875 86.277344 11.8125 86.269531 11.824219 86.265625 C 11.828125 86.261719 11.832031 86.261719 11.832031 86.261719 L 22.496094 79.917969 C 22.578125 79.871094 22.625 79.785156 22.625 79.691406 L 22.625 67.003906 C 22.625 67 22.625 66.996094 22.625 66.992188 Z M 18.363281 64.921875 L 15.335938 66.722656 L 12.292969 64.914062 L 15.320312 63.113281 Z M 14.828125 67.027344 L 11.785156 68.835938 L 8.738281 67.027344 L 11.785156 65.214844 Z M 11.707031 60.964844 L 14.808594 62.808594 L 11.785156 64.609375 L 8.679688 62.765625 Z M 8.171875 63.066406 L 11.273438 64.914062 L 8.230469 66.722656 L 5.128906 64.878906 Z M 4.394531 81.378906 L 1.296875 79.539062 L 1.296875 75.984375 L 4.394531 77.828125 Z M 4.394531 77.222656 L 1.296875 75.378906 L 1.296875 71.8125 L 4.394531 73.652344 Z M 4.394531 73.046875 L 1.296875 71.207031 L 1.296875 67.460938 L 4.394531 69.300781 Z M 1.550781 67.003906 L 4.617188 65.179688 L 7.71875 67.027344 L 4.65625 68.847656 Z M 8 83.523438 L 4.902344 81.683594 L 4.902344 78.132812 L 8 79.972656 Z M 8 79.367188 L 4.902344 77.523438 L 4.902344 73.957031 L 8 75.800781 Z M 8 75.191406 L 4.902344 73.351562 L 4.902344 69.605469 L 8 71.445312 Z M 5.164062 69.152344 L 8.230469 67.328125 L 11.273438 69.140625 L 8.207031 70.964844 Z M 11.453125 85.578125 L 8.511719 83.828125 L 8.511719 80.277344 L 11.453125 82.023438 Z M 11.453125 81.417969 L 8.511719 79.667969 L 8.511719 76.101562 L 11.453125 77.851562 Z M 11.453125 77.246094 L 8.511719 75.496094 L 8.511719 71.75 L 11.453125 73.5 Z M 11.707031 73.042969 L 8.71875 71.265625 L 11.785156 69.441406 L 14.773438 71.21875 Z M 15.058594 83.734375 L 11.960938 85.578125 L 11.960938 82.023438 L 15.058594 80.183594 Z M 15.058594 79.578125 L 11.960938 81.417969 L 11.960938 77.851562 L 15.058594 76.011719 Z M 15.058594 75.402344 L 11.960938 77.246094 L 11.960938 73.5 L 15.058594 71.65625 Z M 12.292969 69.140625 L 15.335938 67.328125 L 18.324219 69.105469 L 15.28125 70.917969 Z M 18.664062 81.589844 L 15.566406 83.433594 L 15.566406 79.878906 L 18.664062 78.039062 Z M 18.664062 77.433594 L 15.566406 79.273438 L 15.566406 75.707031 L 18.664062 73.867188 Z M 18.664062 73.257812 L 15.566406 75.101562 L 15.566406 71.355469 L 18.664062 69.511719 Z M 15.847656 67.027344 L 18.871094 65.226562 L 21.859375 67.003906 L 18.835938 68.804688 Z M 22.113281 79.539062 L 19.171875 81.289062 L 19.171875 77.734375 L 22.113281 75.984375 Z M 22.113281 75.378906 L 19.171875 77.128906 L 19.171875 73.5625 L 22.113281 71.8125 Z M 22.113281 71.207031 L 19.171875 72.957031 L 19.171875 69.210938 L 22.113281 67.460938 Z M 22.113281 71.207031 " fill-opacity="1" fill-rule="nonzero"/></g><g fill="#2af598" fill-opacity="1"><g transform="translate(23.424375, 80.929941)"><g><path d="M 0.449219 -14.851562 C 1.738281 -14.851562 1.828125 -13.785156 1.828125 -10.828125 L 1.828125 -4.171875 C 1.828125 -1.214844 1.738281 -0.148438 0.449219 -0.148438 L 0.449219 0 L 11.191406 0 L 11.191406 -2.476562 L 11.039062 -2.476562 C 11.039062 -0.316406 6.464844 -0.148438 5.039062 -0.148438 L 3.121094 -0.148438 L 3.121094 -8.160156 C 3.359375 -8.476562 3.734375 -8.699219 4.171875 -8.683594 C 5.234375 -8.65625 6 -7.363281 7.828125 -7.363281 C 9.015625 -7.363281 9.75 -8.128906 9.75 -9.015625 L 9.601562 -9.015625 C 9.601562 -8.488281 9.058594 -8.160156 8.488281 -8.160156 C 7.171875 -8.160156 6.34375 -9.089844 4.859375 -9.089844 C 4.171875 -9.089844 3.570312 -8.835938 3.121094 -8.398438 L 3.121094 -14.851562 L 5.609375 -14.851562 C 9.058594 -14.851562 11.039062 -14.039062 11.039062 -13.035156 L 11.039062 -12.976562 L 11.191406 -12.976562 L 11.191406 -15 L 0.449219 -15 Z M 0.449219 -14.851562 "/></g></g></g><g fill="#2af598" fill-opacity="1"><g transform="translate(44.694365, 80.929941)"><g><path d="M 0.449219 0 L 1.648438 0 C 3.226562 0 4.515625 0.300781 5.835938 0.300781 C 10.453125 0.300781 12.644531 -3.390625 12.644531 -7.5 C 12.644531 -11.609375 10.453125 -15.300781 5.835938 -15.300781 C 4.515625 -15.300781 3.226562 -15 1.648438 -15 L 0.449219 -15 L 0.449219 -14.851562 C 1.738281 -14.851562 1.828125 -13.785156 1.828125 -10.828125 L 1.828125 -4.171875 C 1.828125 -1.214844 1.738281 -0.148438 0.449219 -0.148438 Z M 3.105469 -14.671875 C 3.976562 -14.941406 4.84375 -15.089844 5.820312 -15.089844 C 9.523438 -15.089844 11.355469 -11.59375 11.355469 -7.5 C 11.355469 -3.40625 9.523438 0.0898438 5.820312 0.0898438 C 4.84375 0.0898438 3.976562 -0.0585938 3.105469 -0.328125 Z M 3.105469 -14.671875 "/></g></g></g><g fill="#08aeea" fill-opacity="1"><g transform="translate(67.861872, 80.929941)"><g><path d="M 0.449219 -2.625 C 0.449219 -1.066406 1.441406 0.300781 3.179688 0.300781 C 6.164062 0.300781 7.921875 -2.339844 7.921875 -5.984375 C 7.921875 -6.703125 7.890625 -7.304688 7.828125 -7.785156 L 9.691406 -2.878906 C 10.261719 -1.363281 10.335938 -0.148438 8.21875 -0.148438 L 8.21875 0 L 13.140625 0 L 13.140625 -0.148438 C 12.226562 -0.148438 11.746094 -0.976562 11.085938 -2.625 L 6.285156 -15.300781 L 6.136719 -15.300781 C 5.191406 -12.808594 4.636719 -11.324219 3.71875 -8.910156 C 3.570312 -8.519531 3.644531 -8.113281 4.066406 -8.113281 C 4.921875 -8.113281 5.371094 -9.691406 6.089844 -9.691406 C 6.285156 -9.691406 6.449219 -9.570312 6.449219 -9.285156 C 6.449219 -7.726562 0.449219 -6.316406 0.449219 -2.625 Z M 1.726562 -2.910156 C 1.726562 -6.613281 6.613281 -7.246094 6.613281 -9.253906 C 6.613281 -9.644531 6.40625 -9.839844 6.121094 -9.839844 C 5.324219 -9.839844 4.769531 -8.265625 4.078125 -8.265625 C 3.839844 -8.265625 3.71875 -8.445312 3.914062 -8.96875 L 5.640625 -13.558594 L 7.453125 -8.773438 C 7.726562 -7.890625 7.769531 -7.066406 7.769531 -5.953125 C 7.769531 -3.496094 6.585938 -0.421875 4.078125 -0.421875 C 2.609375 -0.421875 1.726562 -1.5 1.726562 -2.910156 Z M 1.726562 -2.910156 "/></g></g></g><g fill="#08aeea" fill-opacity="1"><g transform="translate(90.631863, 80.929941)"><g><path d="M 7.574219 0.300781 C 9.496094 0.300781 10.816406 0 12.015625 -0.390625 L 12.015625 -2.398438 L 11.851562 -2.398438 C 11.851562 -2.398438 10.90625 0.121094 7.574219 0.121094 C 4.679688 0.121094 2.25 -3.121094 2.25 -7.5 C 2.25 -11.878906 4.46875 -15.121094 7.574219 -15.121094 C 10.078125 -15.121094 11.296875 -14.054688 11.296875 -12.269531 C 11.296875 -10.078125 7.078125 -9.195312 7.078125 -6.554688 C 7.078125 -5.863281 7.574219 -4.980469 8.386719 -5.160156 C 8.085938 -5.414062 7.933594 -5.671875 7.933594 -6.136719 C 7.933594 -7.921875 12.179688 -9.03125 12.179688 -12.148438 C 12.179688 -13.515625 11.011719 -15.300781 7.574219 -15.300781 C 3.839844 -15.300781 0.898438 -12 0.898438 -7.5 C 0.898438 -3 3.839844 0.300781 7.574219 0.300781 Z M 7.574219 0.300781 "/></g></g></g><g fill="#08aeea" fill-opacity="1"><g transform="translate(112.741849, 80.929941)"><g><path d="M 0.449219 -15 L 0.449219 -12.976562 L 0.601562 -12.976562 C 0.601562 -13.019531 0.585938 -12.976562 0.585938 -13.035156 C 0.585938 -14.039062 2.476562 -14.851562 5.054688 -14.851562 L 5.054688 -4.171875 C 5.054688 -1.214844 4.964844 -0.148438 3.675781 -0.148438 L 3.675781 0 L 7.589844 0 L 7.589844 -0.148438 C 6.300781 -0.148438 6.328125 -1.214844 6.328125 -4.171875 L 6.328125 -14.851562 C 8.910156 -14.851562 10.800781 -14.039062 10.800781 -13.035156 C 10.800781 -12.976562 10.785156 -13.019531 10.785156 -12.976562 L 10.933594 -12.976562 L 10.933594 -15 Z M 0.449219 -15 "/></g></g></g><g fill="#dfafb2" fill-opacity="1"><g transform="translate(133.7564, 80.929941)"><g><path d="M 0.449219 0 L 4.484375 0 L 4.484375 -0.148438 C 3.195312 -0.148438 3.105469 -1.214844 3.105469 -4.171875 L 3.105469 -14.609375 C 4.019531 -14.941406 4.738281 -15.089844 5.851562 -15.089844 C 8.640625 -15.089844 10.394531 -13.558594 10.394531 -11.070312 C 10.394531 -9.269531 9.179688 -7.425781 7.304688 -7.425781 C 5.910156 -7.425781 5.21875 -8.28125 4.335938 -8.28125 C 4.066406 -8.28125 3.808594 -8.128906 3.808594 -7.769531 C 3.808594 -6.75 5.398438 -6.691406 6.855469 -4.5 C 9.226562 -0.945312 9.644531 0 10.335938 0 L 12.628906 0 L 12.628906 -0.148438 C 10.921875 -0.148438 9.523438 -2.820312 8.339844 -4.664062 C 7.125 -6.554688 3.960938 -6.765625 3.960938 -7.738281 C 3.960938 -8.085938 4.214844 -8.128906 4.394531 -8.128906 C 5.023438 -8.128906 5.984375 -7.171875 7.394531 -7.171875 C 10.003906 -7.171875 11.683594 -9.03125 11.683594 -11.085938 C 11.683594 -13.53125 9.898438 -15.300781 6.703125 -15.300781 C 4.964844 -15.300781 3.898438 -15 2.25 -15 L 0.449219 -15 L 0.449219 -14.851562 C 1.738281 -14.851562 1.828125 -13.785156 1.828125 -10.828125 L 1.828125 -4.171875 C 1.828125 -1.214844 1.738281 -0.148438 0.449219 -0.148438 Z M 0.449219 0 "/></g></g></g></svg>